<svg width="119" height="25" viewBox="0 0 119 25" fill="none" xmlns="http://www.w3.org/2000/svg">
<path d="M11.5508 24.3486C5.06952 24.3486 0 19.0866 0 12.3165C0 5.57858 5.06952 0.348633 11.5508 0.348633C17.615 0.348633 22.3636 4.39141 23.1658 10.2952H18C17.4545 6.99034 14.8877 4.71227 11.615 4.71227C7.66845 4.71227 5.00535 7.82457 5.00535 12.3165C5.00535 16.8406 7.66845 19.985 11.615 19.985C14.8877 19.985 17.4225 17.6748 18 14.37H23.1658C22.3636 20.3379 17.615 24.3486 11.5508 24.3486Z" fill="white"/>
<path d="M33.7583 6.4128C25.0631 6.4128 25.0631 10.3272 25.0631 15.3005C25.0631 20.3059 28.785 24.1882 33.7583 24.1882C38.7315 24.1882 42.4535 20.3059 42.4535 15.3005C42.4535 10.3272 42.4535 6.4128 33.7583 6.4128ZM33.7583 10.3593C37.8652 10.3593 37.8652 12.124 37.8652 15.3005C37.8652 18.477 35.9722 20.2096 33.7583 20.2096C31.5444 20.2096 29.6513 18.477 29.6513 15.3005C29.6513 12.124 29.6513 10.3593 33.7583 10.3593Z" fill="white"/>
<path d="M58.9143 23.8673L55.6737 12.7337L52.4652 23.8673H48.0053L43.1283 6.73366H47.4598L50.3796 17.5786L53.524 6.73366H57.9197L60.9678 17.5786L63.8555 6.73366H68.2513L63.3422 23.8673H58.9143Z" fill="white"/>
<path d="M77.6252 24.1882C72.652 24.1882 68.9301 20.2738 68.9301 15.3005C68.9301 10.2952 68.9301 6.4128 77.6252 6.4128C86.3204 6.4128 86.3204 10.2952 86.3204 15.3005C86.3204 20.2738 82.5985 24.1882 77.6252 24.1882ZM77.6252 20.2417C79.8391 20.2417 81.7322 18.477 81.7322 15.3005C81.7322 12.124 81.7322 10.3914 77.6252 10.3914C73.5183 10.3914 73.5183 12.124 73.5183 15.3005C73.5183 18.477 75.4113 20.2417 77.6252 20.2417Z" fill="white"/>
<path d="M93.6264 15.5572V23.8673H89.1665V6.73366H93.2735V10.0385C94.5248 7.85665 97.1879 6.54115 99.9473 6.54115V11.1615C96.1612 10.8727 93.6264 11.7711 93.6264 15.5572Z" fill="white"/>
<path d="M106.724 23.8673H102.264V0.829916H106.724V13.985L112.981 6.73366H118.114L111.023 14.9476L118.948 23.8673H113.269L106.724 15.9101V23.8673Z" fill="white"/>
</svg>
