<svg width="139" height="33" viewBox="0 0 139 33" fill="none" xmlns="http://www.w3.org/2000/svg">
<g clip-path="url(#clip0_2007_1314)">
<path d="M39.9004 23.6999H48.9826V21.1138H42.6698V9.03809H39.9004V23.6999Z" fill="black"/>
<path d="M54.4401 24.0055C55.5398 24.0055 56.5071 23.7611 57.342 23.2724C58.1837 22.7768 58.8387 22.0947 59.3071 21.2259C59.7822 20.3502 60.0198 19.3422 60.0198 18.2019C60.0198 17.0683 59.7856 16.0671 59.3173 15.1982C58.8489 14.3226 58.1938 13.637 57.3521 13.1415C56.5173 12.646 55.5466 12.3982 54.4401 12.3982C53.3541 12.3982 52.3936 12.6426 51.5587 13.1313C50.7238 13.62 50.0688 14.3022 49.5936 15.1779C49.1185 16.0467 48.8809 17.0547 48.8809 18.2019C48.8809 19.3354 49.1117 20.34 49.5733 21.2156C50.0416 22.0845 50.6933 22.7667 51.5281 23.2622C52.3631 23.7577 53.3337 24.0055 54.4401 24.0055ZM54.4401 21.4193C53.5781 21.4193 52.9231 21.1308 52.4751 20.5539C52.0338 19.9701 51.8133 19.1861 51.8133 18.2019C51.8133 17.2448 52.0237 16.4709 52.4445 15.8804C52.8721 15.2831 53.5373 14.9844 54.4401 14.9844C55.3158 14.9844 55.9742 15.2763 56.4154 15.86C56.8634 16.4438 57.0874 17.2244 57.0874 18.2019C57.0874 19.1454 56.8669 19.9192 56.4256 20.5233C55.9912 21.1206 55.3293 21.4193 54.4401 21.4193Z" fill="black"/>
<path d="M65.4963 24.0055C66.0122 24.0055 66.4873 23.9444 66.9218 23.8222C67.363 23.7 67.7635 23.5269 68.1232 23.3029V24.4128C68.1368 24.82 68.0315 25.1594 67.8075 25.4309C67.5903 25.7092 67.2985 25.9163 66.9319 26.052C66.5654 26.1946 66.1751 26.2659 65.7611 26.2659C65.3741 26.2659 65.0143 26.181 64.6818 26.0113C64.3559 25.8416 64.1047 25.5939 63.9283 25.268L61.3625 26.5102C61.7833 27.2229 62.384 27.7965 63.1647 28.2309C63.9453 28.6721 64.8039 28.8928 65.7407 28.8928C66.5484 28.8928 67.2985 28.7841 67.9908 28.5669C68.6832 28.3565 69.267 28.0341 69.7421 27.5996C70.224 27.1652 70.5533 26.612 70.7298 25.94C70.7908 25.7024 70.8315 25.4615 70.8519 25.2171C70.8791 24.9796 70.8927 24.725 70.8927 24.4535V12.7036H68.4694V13.3146C68.096 13.0227 67.6718 12.7987 67.1967 12.6426C66.7283 12.4796 66.2091 12.3982 65.6388 12.3982C64.5867 12.3982 63.6703 12.6494 62.8898 13.1516C62.1091 13.654 61.5016 14.3429 61.0672 15.2186C60.6395 16.0874 60.4258 17.0819 60.4258 18.2019C60.4258 19.3015 60.6362 20.2891 61.0571 21.1648C61.4847 22.0404 62.0786 22.7328 62.8388 23.2419C63.5991 23.7509 64.4849 24.0055 65.4963 24.0055ZM65.9443 21.5415C65.347 21.5415 64.8583 21.3921 64.4781 21.0935C64.098 20.7948 63.8163 20.3944 63.6331 19.892C63.4498 19.3829 63.3581 18.8196 63.3581 18.2019C63.3581 17.5909 63.4531 17.0344 63.6432 16.532C63.8333 16.0229 64.1251 15.6191 64.5188 15.3204C64.9193 15.0149 65.4284 14.8622 66.0461 14.8622C66.915 14.8622 67.536 15.1711 67.9094 15.7888C68.2827 16.3996 68.4694 17.204 68.4694 18.2019C68.4694 19.1996 68.2793 20.0074 67.8992 20.6251C67.5259 21.236 66.8743 21.5415 65.9443 21.5415Z" fill="black"/>
<path d="M77.4704 24.0055C78.5701 24.0055 79.5374 23.7611 80.3723 23.2724C81.2138 22.7768 81.869 22.0947 82.337 21.2259C82.8122 20.3502 83.0498 19.3422 83.0498 18.2019C83.0498 17.0683 82.8162 16.0671 82.3474 15.1982C81.8794 14.3226 81.2242 13.637 80.3824 13.1415C79.5475 12.646 78.5768 12.3982 77.4704 12.3982C76.3843 12.3982 75.4239 12.6426 74.589 13.1313C73.7541 13.62 73.0991 14.3022 72.6239 15.1779C72.1487 16.0467 71.9111 17.0547 71.9111 18.2019C71.9111 19.3354 72.1419 20.34 72.6035 21.2156C73.0719 22.0845 73.7235 22.7667 74.5584 23.2622C75.3934 23.7577 76.364 24.0055 77.4704 24.0055ZM77.4704 21.4193C76.6083 21.4193 75.9533 21.1308 75.5053 20.5539C75.0641 19.9701 74.8435 19.1861 74.8435 18.2019C74.8435 17.2448 75.0539 16.4709 75.4748 15.8804C75.9024 15.2831 76.5676 14.9844 77.4704 14.9844C78.3461 14.9844 79.0045 15.2763 79.4457 15.86C79.8937 16.4438 80.1177 17.2244 80.1177 18.2019C80.1177 19.1454 79.8971 19.9192 79.4559 20.5233C79.0215 21.1206 78.3596 21.4193 77.4704 21.4193Z" fill="black"/>
<path d="M84.2705 11.1763H87.0401V8.73267H84.2705V11.1763ZM84.2705 23.6999H87.0401V12.7035H84.2705V23.6999Z" fill="black"/>
<path d="M88.8506 28.5873H91.6402V23.3029C92.0002 23.5269 92.397 23.7 92.8314 23.8222C93.273 23.9444 93.7514 24.0055 94.2674 24.0055C95.2786 24.0055 96.165 23.7509 96.925 23.2419C97.685 22.7328 98.2754 22.0404 98.6962 21.1648C99.1242 20.2891 99.3378 19.3015 99.3378 18.2019C99.3378 17.0819 99.121 16.0874 98.6866 15.2186C98.2586 14.3429 97.6546 13.654 96.8738 13.1516C96.093 12.6494 95.177 12.3982 94.125 12.3982C93.5546 12.3982 93.0322 12.4796 92.557 12.6426C92.0882 12.7987 91.6674 13.0227 91.2946 13.3146V12.7036H88.8506V28.5873ZM93.8194 21.5415C92.8962 21.5415 92.245 21.236 91.8642 20.6251C91.4842 20.0074 91.2946 19.1996 91.2946 18.2019C91.2946 17.204 91.481 16.3996 91.8546 15.7888C92.2346 15.1711 92.8554 14.8622 93.7178 14.8622C94.3354 14.8622 94.841 15.0149 95.2346 15.3204C95.6354 15.6191 95.9306 16.0229 96.1202 16.532C96.3106 17.0344 96.4058 17.5909 96.4058 18.2019C96.4058 18.8196 96.3138 19.3829 96.1306 19.892C95.9474 20.3944 95.6658 20.7948 95.2858 21.0935C94.9058 21.3921 94.417 21.5415 93.8194 21.5415Z" fill="black"/>
<path d="M104.355 24.0055C105.794 24.0055 106.921 23.6831 107.735 23.0382C108.55 22.3933 108.957 21.5076 108.957 20.3808C108.957 19.5255 108.692 18.8501 108.163 18.3546C107.64 17.8591 106.751 17.4484 105.495 17.1226C104.64 16.9053 104.002 16.7288 103.581 16.5931C103.167 16.4574 102.892 16.325 102.756 16.196C102.627 16.0671 102.563 15.9076 102.563 15.7175C102.563 15.3984 102.715 15.1541 103.021 14.9844C103.334 14.8147 103.744 14.7468 104.253 14.7808C105.332 14.8622 105.923 15.3238 106.025 16.1655L108.855 15.6564C108.713 14.6586 108.224 13.8678 107.389 13.284C106.554 12.6935 105.489 12.3982 104.192 12.3982C102.862 12.3982 101.799 12.7104 101.005 13.3349C100.211 13.9594 99.8137 14.8011 99.8137 15.86C99.8137 16.7017 100.089 17.3669 100.638 17.8556C101.188 18.3376 102.135 18.7516 103.479 19.0979C104.274 19.3083 104.857 19.478 105.23 19.6069C105.61 19.7359 105.855 19.8683 105.963 20.004C106.072 20.133 106.126 20.3061 106.126 20.5233C106.126 20.8695 105.99 21.141 105.719 21.3379C105.448 21.5279 105.061 21.6229 104.558 21.6229C103.947 21.6229 103.442 21.477 103.042 21.1851C102.648 20.8932 102.393 20.4894 102.278 19.9735L99.4473 20.4011C99.6305 21.5483 100.146 22.4375 100.995 23.0688C101.85 23.6932 102.97 24.0055 104.355 24.0055Z" fill="black"/>
<path d="M114.066 24.0259C114.861 24.0259 115.553 23.8935 116.144 23.6287C116.734 23.364 117.23 23.0111 117.63 22.5699V23.7H120.074V12.7036H117.284V18.2833C117.284 18.9621 117.206 19.5119 117.05 19.9327C116.901 20.3468 116.707 20.6624 116.47 20.8796C116.232 21.0901 115.978 21.2326 115.706 21.3073C115.434 21.3819 115.18 21.4193 114.942 21.4193C114.352 21.4193 113.894 21.2869 113.568 21.0222C113.249 20.7575 113.018 20.4283 112.875 20.0346C112.733 19.6408 112.648 19.2506 112.621 18.8636C112.594 18.4699 112.58 18.1475 112.58 17.8963V12.7036H109.77V18.8739C109.77 19.0571 109.783 19.349 109.81 19.7495C109.838 20.1499 109.916 20.5946 110.045 21.0833C110.174 21.5652 110.387 22.0302 110.686 22.4782C110.992 22.9262 111.416 23.2961 111.959 23.588C112.502 23.8799 113.205 24.0259 114.066 24.0259Z" fill="black"/>
<path d="M121.678 23.7001H124.467V17.0411C124.467 16.4099 124.64 15.8974 124.987 15.5037C125.339 15.1032 125.804 14.903 126.382 14.903C126.986 14.903 127.458 15.1066 127.797 15.5139C128.143 15.9144 128.316 16.4778 128.316 17.2041V23.7001H131.086V17.0411C131.086 16.4099 131.259 15.8974 131.605 15.5037C131.958 15.1032 132.423 14.903 132.999 14.903C133.604 14.903 134.075 15.1066 134.415 15.5139C134.761 15.9144 134.935 16.4778 134.935 17.2041V23.7001H137.703V16.471C137.703 15.2695 137.381 14.2989 136.736 13.559C136.099 12.8123 135.151 12.439 133.895 12.439C133.19 12.439 132.542 12.5917 131.951 12.8971C131.36 13.2026 130.889 13.6201 130.535 14.1495C130.251 13.6337 129.843 13.2196 129.314 12.9074C128.784 12.5951 128.126 12.439 127.339 12.439C126.673 12.439 126.063 12.5714 125.506 12.8361C124.949 13.094 124.487 13.4504 124.121 13.9051V12.7037H121.678V23.7001Z" fill="black"/>
<path d="M16.6709 0.5C7.83434 0.5 0.670898 7.66344 0.670898 16.5C9.50746 16.5 16.6709 9.33656 16.6709 0.5Z" fill="#EEBA33"/>
<path d="M16.6709 32.5C25.5075 32.5 32.6709 25.3366 32.6709 16.5C23.8343 16.5 16.6709 23.6634 16.6709 32.5Z" fill="#EEBA33"/>
<path d="M16.6709 0.5C25.5075 0.5 32.6709 7.66344 32.6709 16.5C23.8343 16.5 16.6709 9.33656 16.6709 0.5Z" fill="#EEBA33"/>
<path d="M16.6709 32.5C7.83434 32.5 0.670898 25.3366 0.670898 16.5C9.50746 16.5 16.6709 23.6634 16.6709 32.5Z" fill="#EEBA33"/>
</g>
<defs>
<clipPath id="clip0_2007_1314">
<rect width="137.6" height="32" fill="white" transform="translate(0.670898 0.5)"/>
</clipPath>
</defs>
</svg>
