<svg width="133" height="35" viewBox="0 0 133 35" fill="none" xmlns="http://www.w3.org/2000/svg">
<path d="M30.7902 12.25C31.1502 12.25 31.2702 12.38 31.2702 12.73V20.65H35.3402C35.6902 20.65 35.8202 20.78 35.8202 21.13V21.83C35.8202 22.18 35.6902 22.31 35.3402 22.31H29.9802C29.6302 22.31 29.4902 22.18 29.4902 21.83V12.73C29.4902 12.38 29.6302 12.25 29.9802 12.25H30.7902Z" fill="black"/>
<path d="M39.3701 15.74C39.3701 13.43 40.8301 12.04 43.3701 12.04C45.9101 12.04 47.3701 13.43 47.3701 15.74V18.82C47.3701 21.13 45.9001 22.52 43.3701 22.52C40.8401 22.52 39.3701 21.13 39.3701 18.82V15.74ZM45.6901 15.74C45.6901 14.44 44.8801 13.74 43.4201 13.74C41.9601 13.74 41.1601 14.45 41.1601 15.74V18.84C41.1601 20.15 41.9601 20.84 43.4201 20.84C44.8801 20.84 45.6901 20.12 45.6901 18.84V15.74Z" fill="black"/>
<path d="M59.2802 16.8C59.6702 16.8 59.7602 16.93 59.7602 17.28V19.18C59.7708 19.6275 59.6811 20.0718 59.4977 20.4801C59.3142 20.8885 59.0418 21.2506 58.7002 21.54C57.8519 22.2155 56.7823 22.5506 55.7002 22.48C53.1102 22.48 51.7002 21.09 51.7002 18.78V15.68C51.7002 13.4 53.1602 12 55.7002 12C57.7002 12 59.0002 12.79 59.5502 14.37C59.581 14.4294 59.5975 14.4951 59.5984 14.5619C59.5993 14.6288 59.5846 14.695 59.5555 14.7551C59.5264 14.8153 59.4836 14.8679 59.4306 14.9087C59.3776 14.9494 59.3158 14.9773 59.2502 14.99L58.4702 15.26C58.1302 15.38 57.9902 15.31 57.8702 14.96C57.7045 14.5329 57.4012 14.1731 57.0082 13.9377C56.6152 13.7023 56.155 13.6045 55.7002 13.66C54.2302 13.66 53.4302 14.37 53.4302 15.66V18.84C53.4302 20.15 54.2402 20.84 55.7002 20.84C57.1602 20.84 58.0602 20.17 58.0602 19.19V18.45H55.8902C55.5302 18.45 55.4002 18.31 55.4002 17.96V17.28C55.4002 16.93 55.5302 16.8 55.8902 16.8H59.2802Z" fill="black"/>
<path d="M63.8906 15.74C63.8906 13.43 65.3506 12.04 67.8906 12.04C70.4306 12.04 71.8906 13.43 71.8906 15.74V18.82C71.8906 21.13 70.4206 22.52 67.8906 22.52C65.3606 22.52 63.8906 21.13 63.8906 18.82V15.74ZM70.2006 15.74C70.2006 14.44 69.3906 13.74 67.9406 13.74C66.4906 13.74 65.6706 14.45 65.6706 15.74V18.84C65.6706 20.15 66.4806 20.84 67.9406 20.84C69.4006 20.84 70.2006 20.12 70.2006 18.84V15.74Z" fill="black"/>
<path d="M76.6006 12.54C76.6006 12.32 76.6706 12.25 76.8906 12.25H77.3506C77.5706 12.25 77.6206 12.32 77.6206 12.54V22.02C77.6206 22.24 77.6206 22.31 77.3506 22.31H76.8906C76.6706 22.31 76.6006 22.24 76.6006 22.02V12.54Z" fill="black"/>
<path d="M86.7309 12.25C87.5637 12.25 88.3623 12.5808 88.9512 13.1697C89.5401 13.7585 89.8709 14.5572 89.8709 15.39C89.8709 16.2228 89.5401 17.0215 88.9512 17.6103C88.3623 18.1992 87.5637 18.53 86.7309 18.53H83.7309V22.02C83.7309 22.24 83.6809 22.31 83.4709 22.31H83.0009C82.7909 22.31 82.7109 22.24 82.7109 22.02V12.54C82.7109 12.32 82.7909 12.25 83.0009 12.25H86.7309ZM86.6409 17.54C86.9272 17.54 87.2107 17.4836 87.4752 17.3741C87.7396 17.2645 87.98 17.1039 88.1824 16.9015C88.3848 16.6991 88.5454 16.4587 88.655 16.1943C88.7645 15.9298 88.8209 15.6463 88.8209 15.36C88.8209 15.0737 88.7645 14.7902 88.655 14.5257C88.5454 14.2613 88.3848 14.0209 88.1824 13.8185C87.98 13.6161 87.7396 13.4555 87.4752 13.3459C87.2107 13.2364 86.9272 13.18 86.6409 13.18H83.6409V17.54H86.6409Z" fill="black"/>
<path d="M97.6808 12.0501C98.4529 11.9649 99.2318 12.131 99.902 12.5237C100.572 12.9165 101.098 13.5149 101.401 14.2301C101.481 14.3901 101.401 14.5201 101.241 14.6001L100.801 14.8001C100.621 14.8701 100.551 14.8601 100.441 14.6701C100.214 14.1393 99.8247 13.6943 99.3285 13.3995C98.8324 13.1047 98.2553 12.9753 97.6808 13.0301C95.9908 13.0301 95.0708 13.7001 95.0708 14.9001C95.061 15.2668 95.1841 15.6248 95.4176 15.9078C95.651 16.1908 95.9789 16.3799 96.3408 16.4401C96.8786 16.6155 97.4363 16.723 98.0008 16.7601C98.6841 16.7965 99.3582 16.9347 100.001 17.1701C100.494 17.326 100.918 17.6466 101.202 18.0782C101.486 18.5098 101.613 19.026 101.561 19.5401C101.561 21.4101 100.201 22.5401 97.7008 22.5401C96.8808 22.6339 96.0534 22.4439 95.3565 22.0017C94.6596 21.5596 94.1352 20.8919 93.8708 20.1101C93.8531 20.0745 93.8436 20.0354 93.8428 19.9956C93.842 19.9558 93.8501 19.9164 93.8663 19.8801C93.8825 19.8438 93.9066 19.8115 93.9368 19.7856C93.9669 19.7596 94.0024 19.7407 94.0408 19.7301L94.4808 19.5701C94.5154 19.5559 94.5527 19.5491 94.5901 19.5501C94.6275 19.5511 94.6643 19.5599 94.6982 19.5759C94.732 19.5919 94.7622 19.6147 94.7867 19.643C94.8113 19.6713 94.8297 19.7043 94.8408 19.7401C95.0645 20.305 95.4623 20.784 95.9765 21.1077C96.4907 21.4313 97.0947 21.5828 97.7008 21.5401C99.5908 21.5401 100.521 20.8801 100.521 19.5401C100.539 19.1879 100.431 18.8408 100.216 18.5606C100.002 18.2805 99.6953 18.0854 99.3508 18.0101C98.8334 17.8558 98.2998 17.7618 97.7608 17.7301L96.6808 17.5901C96.3428 17.5184 96.009 17.4282 95.6808 17.3201C95.3566 17.2222 95.0544 17.0626 94.7908 16.8501C94.5255 16.6099 94.3164 16.3143 94.1781 15.9842C94.0399 15.6541 93.9759 15.2977 93.9908 14.9401C94.0608 13.1901 95.3708 12.0501 97.6808 12.0501Z" fill="black"/>
<path d="M106.951 18.89C106.993 19.5972 107.304 20.2615 107.82 20.7472C108.336 21.2329 109.018 21.5033 109.726 21.5033C110.434 21.5033 111.116 21.2329 111.632 20.7472C112.148 20.2615 112.458 19.5972 112.501 18.89V12.54C112.501 12.32 112.571 12.25 112.791 12.25H113.251C113.471 12.25 113.541 12.32 113.541 12.54V18.88C113.541 21.15 112.201 22.52 109.731 22.52C107.261 22.52 105.921 21.15 105.921 18.88V12.54C105.921 12.32 105.991 12.25 106.201 12.25H106.671C106.881 12.25 106.951 12.32 106.951 12.54V18.89Z" fill="black"/>
<path d="M127.341 12.25C127.561 12.25 127.631 12.32 127.631 12.54V22.02C127.631 22.24 127.561 22.31 127.341 22.31H126.921C126.711 22.31 126.641 22.24 126.641 22.02V16.25C126.641 15.4105 126.698 14.5719 126.811 13.74H126.751C126.439 14.5007 126.074 15.2391 125.661 15.95L123.511 19.74C123.485 19.8058 123.439 19.862 123.38 19.9013C123.321 19.9405 123.252 19.961 123.181 19.96H122.901C122.829 19.9604 122.759 19.9397 122.698 19.9007C122.638 19.8616 122.59 19.8058 122.561 19.74L120.381 15.91C119.994 15.2093 119.66 14.4806 119.381 13.73H119.321C119.423 14.5695 119.477 15.4143 119.481 16.26V22.02C119.481 22.24 119.411 22.31 119.191 22.31H118.801C118.581 22.31 118.511 22.24 118.511 22.02V12.54C118.511 12.32 118.581 12.25 118.801 12.25H119.161C119.243 12.2424 119.326 12.2603 119.397 12.3015C119.469 12.3427 119.526 12.4051 119.561 12.48L123.061 18.7L126.541 12.54C126.651 12.33 126.711 12.3 126.931 12.3L127.341 12.25Z" fill="black"/>
<path d="M13.0005 20.79V28.02C13.0005 28.2972 12.8904 28.563 12.6944 28.7589C12.4985 28.9549 12.2327 29.065 11.9555 29.065C11.6784 29.065 11.4126 28.9549 11.2166 28.7589C11.0206 28.563 10.9105 28.2972 10.9105 28.02V20.8C11.2015 21.0125 11.5503 21.1311 11.9105 21.14C12.3031 21.1512 12.6878 21.0277 13.0005 20.79ZM21.9005 18.7C21.6353 18.7 21.3809 18.8054 21.1934 18.9929C21.0059 19.1804 20.9005 19.4348 20.9005 19.7V20.96C20.9005 21.2372 21.0106 21.503 21.2066 21.6989C21.4025 21.8949 21.6683 22.005 21.9455 22.005C22.2227 22.005 22.4885 21.8949 22.6844 21.6989C22.8804 21.503 22.9905 21.2372 22.9905 20.96V19.75C22.9983 19.6066 22.9751 19.4632 22.9225 19.3296C22.8699 19.196 22.7892 19.0752 22.6857 18.9756C22.5823 18.876 22.4586 18.7998 22.3232 18.7522C22.1877 18.7047 22.0435 18.6869 21.9005 18.7ZM8.64051 23.53C8.28068 23.5192 7.93234 23.4008 7.64051 23.19V30.44C7.64051 30.7185 7.75113 30.9856 7.94805 31.1825C8.14496 31.3794 8.41203 31.49 8.69051 31.49C8.96899 31.49 9.23606 31.3794 9.43297 31.1825C9.62989 30.9856 9.74051 30.7185 9.74051 30.44V23.24C9.41396 23.4511 9.02867 23.5527 8.64051 23.53ZM18.6405 16.53C18.505 16.5232 18.3696 16.5441 18.2424 16.5913C18.1153 16.6385 17.9991 16.7111 17.9008 16.8046C17.8026 16.8982 17.7245 17.0107 17.6711 17.1354C17.6178 17.2601 17.5903 17.3944 17.5905 17.53V23.1C17.5905 23.3785 17.7011 23.6456 17.898 23.8425C18.095 24.0394 18.362 24.15 18.6405 24.15C18.919 24.15 19.1861 24.0394 19.383 23.8425C19.5799 23.6456 19.6905 23.3785 19.6905 23.1V17.6C19.6985 17.4557 19.6751 17.3114 19.6219 17.177C19.5687 17.0426 19.4871 16.9213 19.3825 16.8215C19.2779 16.7217 19.153 16.6457 19.0163 16.5989C18.8796 16.552 18.7343 16.5353 18.5905 16.55L18.6405 16.53ZM15.3205 18.67C14.9438 18.6674 14.5772 18.5487 14.2705 18.33V25.6C14.2705 25.8785 14.3811 26.1456 14.578 26.3425C14.775 26.5394 15.042 26.65 15.3205 26.65C15.599 26.65 15.866 26.5394 16.063 26.3425C16.2599 26.1456 16.3705 25.8785 16.3705 25.6V18.34C16.0533 18.5763 15.666 18.6995 15.2705 18.69L15.3205 18.67ZM6.37051 24.24V3.93C6.36788 3.68243 6.26768 3.44591 6.09168 3.27178C5.91568 3.09765 5.67809 2.99999 5.43051 3H5.21051C4.96293 2.99999 4.72534 3.09765 4.54934 3.27178C4.37334 3.44591 4.27314 3.68243 4.27051 3.93V24.24C4.27051 24.4893 4.36955 24.7284 4.54583 24.9047C4.72211 25.081 4.96121 25.18 5.21051 25.18H5.43051C5.67982 25.18 5.91891 25.081 6.09519 24.9047C6.27148 24.7284 6.37051 24.4893 6.37051 24.24ZM8.75051 22.76H8.53051C8.28121 22.76 8.04211 22.661 7.86583 22.4847C7.68955 22.3084 7.59051 22.0693 7.59051 21.82V6.35C7.59315 6.10244 7.69334 5.8659 7.86934 5.69178C8.04534 5.51765 8.28293 5.41999 8.53051 5.42H8.75051C8.99809 5.41999 9.23568 5.51765 9.41168 5.69178C9.58768 5.8659 9.68788 6.10244 9.69051 6.35V21.84C9.69051 22.0893 9.59147 22.3284 9.41519 22.5047C9.23891 22.681 8.99981 22.78 8.75051 22.78V22.76ZM12.0605 20.38H11.8305C11.5839 20.38 11.3473 20.282 11.1729 20.1076C10.9985 19.9332 10.9005 19.6967 10.9005 19.45V8.75C10.8992 8.62703 10.9223 8.50502 10.9684 8.39103C11.0145 8.27704 11.0828 8.17334 11.1693 8.08592C11.2558 7.9985 11.3588 7.9291 11.4723 7.88174C11.5858 7.83438 11.7075 7.80999 11.8305 7.81H12.0605C12.3081 7.81264 12.5446 7.91283 12.7187 8.08883C12.8929 8.26483 12.9905 8.50242 12.9905 8.75V19.45C12.9905 19.6967 12.8925 19.9332 12.7181 20.1076C12.5437 20.282 12.3072 20.38 12.0605 20.38ZM15.3705 17.93H15.1605C14.9129 17.93 14.6753 17.8324 14.4993 17.6582C14.3233 17.4841 14.2231 17.2476 14.2205 17V11.24C14.2123 11.1116 14.2305 10.9829 14.2741 10.8618C14.3176 10.7408 14.3856 10.6299 14.4737 10.5362C14.5618 10.4424 14.6682 10.3678 14.7864 10.3168C14.9045 10.2659 15.0318 10.2397 15.1605 10.24H15.3805C15.6298 10.24 15.8689 10.339 16.0452 10.5153C16.2215 10.6916 16.3205 10.9307 16.3205 11.18V16.98C16.3218 17.1043 16.2985 17.2276 16.2518 17.3428C16.2052 17.458 16.1362 17.5628 16.0487 17.6512C15.9613 17.7395 15.8573 17.8096 15.7425 17.8575C15.6278 17.9054 15.5048 17.93 15.3805 17.93H15.3705ZM18.6905 15.78H18.4705C18.2212 15.78 17.9821 15.681 17.8058 15.5047C17.6295 15.3284 17.5305 15.0893 17.5305 14.84V13.35C17.5331 13.1024 17.6333 12.8659 17.8093 12.6918C17.9853 12.5176 18.2229 12.42 18.4705 12.42H18.6905C18.9381 12.42 19.1757 12.5176 19.3517 12.6918C19.5277 12.8659 19.6279 13.1024 19.6305 13.35V14.84C19.6305 15.0876 19.5329 15.3252 19.3587 15.5012C19.1846 15.6772 18.9481 15.7774 18.7005 15.78H18.6905Z" fill="#74C326"/>
</svg>
