<svg width="146" height="33" viewBox="0 0 146 33" fill="none" xmlns="http://www.w3.org/2000/svg">
<path d="M43.1854 21.8565C43.1854 22.5551 43.042 23.0918 42.7552 23.4668C42.4758 23.8418 42.0089 24.0293 41.3545 24.0293C40.7368 24.0293 40.2994 23.8418 40.042 23.4668C39.792 23.0918 39.667 22.5551 39.667 21.8565V10.1984C39.667 9.4999 39.792 8.96314 40.042 8.58814C40.2994 8.21314 40.7368 8.02563 41.3545 8.02563C42.0089 8.02563 42.4758 8.21314 42.7552 8.58814C43.042 8.96314 43.1854 9.4999 43.1854 10.1984V21.8565Z" fill="black"/>
<path d="M44.2539 18.4707C44.2539 17.6912 44.3789 16.956 44.629 16.2648C44.8863 15.5662 45.2686 14.956 45.776 14.4339C46.2907 13.9118 46.9304 13.4964 47.6951 13.1876C48.4672 12.8787 49.3716 12.7244 50.4084 12.7244C51.401 12.7244 52.2797 12.8677 53.0444 13.1545C53.8091 13.4413 54.4525 13.842 54.9745 14.3567C55.4965 14.864 55.8936 15.4706 56.1657 16.1765C56.4377 16.875 56.5738 17.6398 56.5738 18.4707C56.5738 19.2428 56.4451 19.9743 56.1877 20.6655C55.9304 21.3493 55.5444 21.9523 55.0296 22.4744C54.515 22.989 53.8716 23.4008 53.0996 23.7097C52.3274 24.0111 51.4304 24.1618 50.4084 24.1618C49.401 24.1618 48.5113 24.0185 47.7392 23.7317C46.9745 23.4376 46.3312 23.0368 45.8091 22.5294C45.2944 22.0148 44.9046 21.4119 44.64 20.7207C44.3826 20.0222 44.2539 19.2721 44.2539 18.4707ZM47.9268 18.4707C47.9268 18.956 47.9708 19.4192 48.0591 19.8604C48.1473 20.2942 48.287 20.6766 48.4782 21.0075C48.6767 21.3383 48.9341 21.603 49.2502 21.8015C49.5665 21.9927 49.9524 22.0883 50.4084 22.0883C50.8275 22.0883 51.1914 22.0001 51.5002 21.8236C51.8164 21.6472 52.0738 21.4008 52.2724 21.0846C52.4782 20.7685 52.6326 20.3898 52.7355 19.9486C52.8385 19.5001 52.89 19.0075 52.89 18.4707C52.89 17.9854 52.8421 17.5258 52.7466 17.092C52.6583 16.6509 52.515 16.2648 52.3164 15.9339C52.1179 15.5957 51.8606 15.331 51.5444 15.1398C51.2356 14.9413 50.8568 14.842 50.4084 14.842C49.9598 14.842 49.5775 14.9375 49.2612 15.1288C48.9451 15.3199 48.6878 15.5809 48.4892 15.9118C48.2907 16.2428 48.1473 16.6287 48.0591 17.07C47.9708 17.5111 47.9268 17.978 47.9268 18.4707Z" fill="black"/>
<path d="M65.6265 21.9008C65.4279 22.2684 65.1853 22.5809 64.8985 22.8383C64.6192 23.0956 64.3066 23.3089 63.9611 23.478C63.6228 23.6397 63.2589 23.761 62.8691 23.842C62.4867 23.9155 62.0934 23.9523 61.689 23.9523C61.0125 23.9523 60.3949 23.8309 59.836 23.5882C59.2772 23.3456 58.7956 22.9963 58.3912 22.5405C57.9941 22.0773 57.6853 21.511 57.4647 20.842C57.2441 20.1728 57.1338 19.4081 57.1338 18.5478C57.1338 17.739 57.2368 16.9816 57.4427 16.2757C57.6485 15.5699 57.9463 14.9559 58.336 14.4339C58.7331 13.9118 59.2184 13.5 59.792 13.1986C60.3654 12.8971 61.0199 12.7463 61.7552 12.7463C62.5934 12.7463 63.336 12.9081 63.9831 13.2316C64.6375 13.5552 65.2 14.0846 65.6706 14.8198V14.5332C65.6706 14.0037 65.814 13.6067 66.1008 13.3419C66.3949 13.0699 66.7993 12.9338 67.314 12.9338C67.6228 12.9338 67.8838 12.9853 68.0971 13.0883C68.3103 13.1839 68.4794 13.3309 68.6044 13.5295C68.7295 13.7206 68.8176 13.9596 68.8691 14.2464C68.928 14.5257 68.9573 14.8456 68.9573 15.2059V22.5957C68.9573 23.4927 68.8434 24.2941 68.6155 25C68.3949 25.7059 68.0493 26.3015 67.5787 26.7868C67.1081 27.2721 66.5052 27.6397 65.7698 27.8898C65.0346 28.1471 64.1596 28.2757 63.1449 28.2757C62.4317 28.2757 61.7993 28.2427 61.2478 28.1765C60.7037 28.1177 60.2331 28.0258 59.836 27.9008C59.439 27.761 59.1376 27.6067 58.9316 27.4375C58.7331 27.2684 58.6338 27.0478 58.6338 26.7758C58.6338 26.6213 58.6559 26.4743 58.7 26.3346C58.7441 26.1949 58.8103 26.0699 58.8985 25.9596C58.9941 25.8566 59.1154 25.7721 59.2625 25.7059C59.4169 25.6471 59.6044 25.6177 59.825 25.6177C60.0603 25.6177 60.2956 25.6324 60.5309 25.6618C60.7735 25.6912 61.0236 25.7206 61.2809 25.75C61.5456 25.7868 61.8213 25.8198 62.1081 25.8493C62.4022 25.8787 62.7184 25.8934 63.0566 25.8934C63.461 25.8934 63.8213 25.853 64.1376 25.7721C64.4537 25.6912 64.722 25.5478 64.9426 25.3419C65.1632 25.1361 65.3324 24.8603 65.45 24.5147C65.5677 24.1765 65.6265 23.7427 65.6265 23.2133V21.9008ZM65.6265 18.4707C65.6265 17.9338 65.586 17.4449 65.5052 17.0037C65.4317 16.5625 65.3029 16.1876 65.1191 15.8787C64.9353 15.5625 64.689 15.3199 64.3802 15.1508C64.0713 14.9743 63.6853 14.8861 63.2221 14.8861C62.7662 14.8861 62.3875 14.978 62.0861 15.1618C61.792 15.3456 61.5567 15.5993 61.3802 15.9228C61.2037 16.2464 61.0787 16.625 61.0051 17.0589C60.939 17.4927 60.9059 17.9559 60.9059 18.4485C60.9059 19.5735 61.1044 20.4192 61.5015 20.9853C61.8985 21.5515 62.4757 21.8346 63.2331 21.8346C63.586 21.8273 63.9059 21.761 64.1926 21.636C64.4867 21.5037 64.7405 21.3015 64.9537 21.0294C65.1669 20.7573 65.3324 20.4117 65.45 19.9926C65.5677 19.5735 65.6265 19.0662 65.6265 18.4707Z" fill="black"/>
<path d="M69.9707 18.4707C69.9707 17.6912 70.0957 16.956 70.3457 16.2648C70.6031 15.5662 70.9854 14.956 71.4928 14.4339C72.0075 13.9118 72.6471 13.4964 73.4118 13.1876C74.184 12.8787 75.0883 12.7244 76.1251 12.7244C77.1177 12.7244 77.9964 12.8677 78.7611 13.1545C79.5258 13.4413 80.1692 13.842 80.6913 14.3567C81.2133 14.864 81.6104 15.4706 81.8824 16.1765C82.1545 16.875 82.2905 17.6398 82.2905 18.4707C82.2905 19.2428 82.1619 19.9743 81.9045 20.6655C81.6471 21.3493 81.2611 21.9523 80.7464 22.4744C80.2317 22.989 79.5883 23.4008 78.8163 23.7097C78.0442 24.0111 77.1472 24.1618 76.1251 24.1618C75.1177 24.1618 74.228 24.0185 73.456 23.7317C72.6913 23.4376 72.0479 23.0368 71.5258 22.5294C71.0112 22.0148 70.6214 21.4119 70.3567 20.7207C70.0994 20.0222 69.9707 19.2721 69.9707 18.4707ZM73.6435 18.4707C73.6435 18.956 73.6876 19.4192 73.7759 19.8604C73.8641 20.2942 74.0037 20.6766 74.195 21.0075C74.3935 21.3383 74.6508 21.603 74.967 21.8015C75.2832 21.9927 75.6692 22.0883 76.1251 22.0883C76.5442 22.0883 76.9082 22.0001 77.217 21.8236C77.5331 21.6472 77.7906 21.4008 77.989 21.0846C78.195 20.7685 78.3493 20.3898 78.4523 19.9486C78.5553 19.5001 78.6067 19.0075 78.6067 18.4707C78.6067 17.9854 78.5589 17.5258 78.4633 17.092C78.3751 16.6509 78.2317 16.2648 78.0332 15.9339C77.8347 15.5957 77.5773 15.331 77.2611 15.1398C76.9523 14.9413 76.5736 14.842 76.1251 14.842C75.6766 14.842 75.2942 14.9375 74.978 15.1288C74.6619 15.3199 74.4045 15.5809 74.206 15.9118C74.0075 16.2428 73.8641 16.6287 73.7759 17.07C73.6876 17.5111 73.6435 17.978 73.6435 18.4707Z" fill="black"/>
<path d="M87.0199 9.00724C87.0199 9.24989 86.9647 9.46679 86.8544 9.65797C86.7441 9.8418 86.6008 9.99617 86.4243 10.1212C86.2478 10.2462 86.0419 10.3418 85.8066 10.4079C85.5787 10.4668 85.3434 10.4962 85.1007 10.4962C84.8434 10.4962 84.5971 10.4631 84.3618 10.3969C84.1338 10.3308 83.9317 10.2352 83.7552 10.1101C83.5787 9.97781 83.439 9.81973 83.336 9.63591C83.2331 9.45209 83.1816 9.24253 83.1816 9.00724C83.1816 8.794 83.2295 8.59915 83.325 8.42268C83.428 8.23886 83.564 8.08077 83.7331 7.94841C83.9022 7.81606 84.1045 7.71312 84.3398 7.63959C84.5751 7.56606 84.8324 7.5293 85.1118 7.5293C85.3544 7.5293 85.5897 7.56239 85.8177 7.62856C86.053 7.69474 86.2588 7.79032 86.4353 7.91533C86.6118 8.04033 86.7515 8.19474 86.8544 8.37856C86.9647 8.56239 87.0199 8.77194 87.0199 9.00724ZM86.8544 21.8565C86.8544 22.555 86.7111 23.0918 86.4243 23.4668C86.1448 23.8418 85.6779 24.0293 85.0235 24.0293C84.4059 24.0293 83.9684 23.8418 83.7111 23.4668C83.4611 23.0918 83.336 22.555 83.336 21.8565V15.1065C83.336 14.4079 83.4611 13.8712 83.7111 13.4962C83.9684 13.1213 84.4059 12.9337 85.0235 12.9337C85.6779 12.9337 86.1448 13.1213 86.4243 13.4962C86.7111 13.8712 86.8544 14.4079 86.8544 15.1065V21.8565Z" fill="black"/>
<path d="M91.9269 18.4485C91.9269 18.9413 91.9636 19.4007 92.0372 19.8273C92.118 20.2537 92.2504 20.6287 92.4342 20.9523C92.6254 21.2684 92.8754 21.5184 93.1842 21.7022C93.5003 21.8861 93.8901 21.978 94.3533 21.978C94.7798 21.978 95.1364 21.8898 95.4234 21.7133C95.7171 21.5295 95.9524 21.2794 96.1293 20.9633C96.3053 20.6397 96.4305 20.2611 96.5039 19.8273C96.5849 19.3934 96.6253 18.9228 96.6253 18.4155C96.6253 18.0111 96.5961 17.5993 96.5369 17.1802C96.4785 16.7537 96.3684 16.3677 96.2065 16.0221C96.0446 15.6765 95.8206 15.3934 95.5336 15.1728C95.2465 14.9523 94.8719 14.842 94.4085 14.842C93.9452 14.842 93.5518 14.9155 93.2283 15.0626C92.9121 15.2096 92.6548 15.4339 92.4563 15.7353C92.265 16.0368 92.129 16.4155 92.0482 16.8713C91.9673 17.3199 91.9269 17.8456 91.9269 18.4485ZM91.9159 15.1066C92.0997 14.717 92.335 14.375 92.6217 14.0809C92.9084 13.7868 93.2247 13.5405 93.5703 13.3419C93.9159 13.1434 94.2761 12.9963 94.6511 12.9008C95.0338 12.7978 95.4121 12.7463 95.7867 12.7463C96.4634 12.7463 97.0743 12.8971 97.6183 13.1986C98.1623 13.5 98.6253 13.9118 99.0074 14.4339C99.3971 14.9486 99.6954 15.5589 99.9016 16.2647C100.107 16.9633 100.21 17.7133 100.21 18.5147C100.21 19.3456 100.099 20.1066 99.879 20.7978C99.6663 21.489 99.3604 22.0846 98.9632 22.5845C98.5736 23.0773 98.103 23.4632 97.5514 23.7427C97.0074 24.0221 96.4013 24.1618 95.7321 24.1618C94.9086 24.1618 94.1732 23.9706 93.5261 23.5882C92.8791 23.2059 92.3423 22.6692 91.9159 21.978V25.9486C91.9159 26.647 91.7724 27.1839 91.4857 27.5589C91.2062 27.9338 90.7394 28.1214 90.0849 28.1214C89.4673 28.1214 89.0297 27.9338 88.7724 27.5589C88.5225 27.1839 88.3975 26.647 88.3975 25.9486V15.1066C88.3975 14.4081 88.5225 13.8713 88.7724 13.4964C89.0297 13.1214 89.4673 12.9338 90.0849 12.9338C90.7394 12.9338 91.2062 13.1214 91.4857 13.4964C91.7724 13.8713 91.9159 14.4081 91.9159 15.1066Z" fill="black"/>
<path d="M104.09 15.8898C104.09 16.1765 104.215 16.4008 104.465 16.5626C104.715 16.717 105.06 16.8457 105.502 16.9486C105.921 17.0442 106.351 17.1361 106.792 17.2243C107.234 17.3126 107.664 17.4156 108.083 17.5332C108.501 17.6434 108.895 17.7758 109.263 17.9302C109.63 18.0846 109.954 18.2795 110.233 18.5148C110.513 18.7427 110.733 19.0222 110.895 19.353C111.057 19.6766 111.138 20.0663 111.138 20.5221C111.138 21.0957 111.02 21.6067 110.785 22.0552C110.549 22.4964 110.215 22.8714 109.781 23.1803C109.355 23.4891 108.844 23.728 108.248 23.8972C107.652 24.0663 106.995 24.1545 106.274 24.1618C105.59 24.1618 104.931 24.1178 104.299 24.0295C103.667 23.9486 103.105 23.8199 102.611 23.6434C102.127 23.467 101.737 23.2501 101.443 22.9927C101.149 22.728 101.002 22.4192 101.002 22.0663C101.002 21.7574 101.101 21.5184 101.299 21.3493C101.498 21.1803 101.751 21.0957 102.061 21.0957C102.179 21.0957 102.318 21.1177 102.48 21.1618C102.642 21.206 102.818 21.2611 103.009 21.3273C103.2 21.3934 103.402 21.467 103.616 21.5479C103.836 21.6214 104.064 21.6876 104.299 21.7464C104.594 21.8273 104.895 21.8935 105.203 21.945C105.52 21.989 105.843 22.0111 106.175 22.0111C106.38 22.0111 106.582 21.9927 106.781 21.956C106.979 21.9118 107.156 21.8494 107.311 21.7685C107.473 21.6802 107.604 21.5699 107.708 21.4376C107.811 21.3053 107.873 21.1435 107.895 20.9523C107.917 20.9082 107.936 20.864 107.95 20.8199C107.965 20.7758 107.972 20.7244 107.972 20.6655C107.972 20.4596 107.876 20.2758 107.685 20.114C107.502 19.9523 107.24 19.8236 106.902 19.728C106.336 19.5957 105.795 19.4744 105.281 19.3641C104.767 19.2538 104.289 19.1361 103.847 19.0111C103.413 18.8862 103.016 18.7427 102.656 18.5809C102.303 18.4192 102.002 18.2206 101.751 17.9854C101.509 17.7501 101.317 17.467 101.178 17.1361C101.045 16.8052 100.979 16.4045 100.979 15.9339C100.979 15.4266 101.093 14.9743 101.321 14.5773C101.556 14.1728 101.891 13.8347 102.325 13.5626C102.759 13.2905 103.284 13.0846 103.903 12.945C104.52 12.7979 105.219 12.7244 105.998 12.7244C107.395 12.7244 108.457 12.8935 109.186 13.2317C109.921 13.5626 110.289 13.9964 110.289 14.5332C110.289 14.8347 110.189 15.0663 109.99 15.228C109.792 15.3824 109.553 15.4596 109.274 15.4596C109.126 15.4596 108.972 15.4339 108.81 15.3824C108.656 15.3236 108.468 15.2611 108.248 15.195C108.027 15.1214 107.763 15.059 107.454 15.0075C107.153 14.9486 106.777 14.9192 106.329 14.9192C105.99 14.9192 105.682 14.9339 105.402 14.9633C105.13 14.9927 104.895 15.0442 104.696 15.1177C104.505 15.1913 104.355 15.2905 104.244 15.4156C104.141 15.5406 104.09 15.6986 104.09 15.8898Z" fill="black"/>
<path d="M115.614 19.9375C115.614 20.2831 115.658 20.5846 115.747 20.842C115.842 21.0993 115.971 21.3162 116.132 21.4927C116.294 21.6618 116.482 21.7905 116.694 21.8787C116.915 21.9596 117.151 22.0001 117.4 22.0001C117.695 22.0001 117.978 21.956 118.25 21.8677C118.522 21.7795 118.761 21.6434 118.967 21.4596C119.18 21.2758 119.349 21.0441 119.475 20.7647C119.599 20.4854 119.662 20.1581 119.662 19.7832V15.1066C119.662 14.4081 119.787 13.8713 120.036 13.4964C120.294 13.1214 120.732 12.9338 121.349 12.9338C122.003 12.9338 122.47 13.1214 122.75 13.4964C123.037 13.8713 123.18 14.4081 123.18 15.1066V21.8567C123.18 22.5552 123.037 23.092 122.75 23.4669C122.47 23.842 122.003 24.0295 121.349 24.0295C120.732 24.0295 120.294 23.842 120.036 23.4669C119.787 23.092 119.662 22.5552 119.662 21.8567C119.507 22.1949 119.305 22.5037 119.055 22.7832C118.812 23.0626 118.526 23.3052 118.195 23.5111C117.871 23.7096 117.511 23.864 117.114 23.9743C116.724 24.0846 116.301 24.1398 115.845 24.1398C115.353 24.1398 114.879 24.0552 114.422 23.8861C113.974 23.7096 113.577 23.4522 113.232 23.114C112.886 22.7685 112.611 22.3419 112.404 21.8346C112.198 21.3272 112.096 20.7353 112.096 20.0588V15.1066C112.096 14.4081 112.221 13.8713 112.47 13.4964C112.728 13.1214 113.165 12.9338 113.783 12.9338C114.437 12.9338 114.904 13.1214 115.184 13.4964C115.471 13.8713 115.614 14.4081 115.614 15.1066V19.9375Z" fill="black"/>
<path d="M124.777 15.1066C124.777 14.4081 124.903 13.8713 125.153 13.4964C125.41 13.1214 125.847 12.9338 126.465 12.9338C127.12 12.9338 127.587 13.1214 127.866 13.4964C128.152 13.8713 128.296 14.4081 128.296 15.1066C128.443 14.7537 128.642 14.4339 128.892 14.1471C129.149 13.853 129.44 13.603 129.763 13.3971C130.094 13.1912 130.451 13.0331 130.833 12.9228C131.215 12.8052 131.612 12.7463 132.024 12.7463C132.407 12.7463 132.781 12.7978 133.149 12.9008C133.524 12.9963 133.87 13.1544 134.186 13.375C134.509 13.5882 134.792 13.8603 135.035 14.1912C135.278 14.5221 135.465 14.9191 135.598 15.3824C135.826 14.8898 136.094 14.4743 136.403 14.1361C136.711 13.7978 137.047 13.5257 137.406 13.3199C137.767 13.114 138.142 12.9669 138.532 12.8787C138.929 12.7905 139.325 12.7463 139.722 12.7463C140.193 12.7463 140.642 12.831 141.068 13C141.502 13.1691 141.88 13.4265 142.204 13.7721C142.535 14.1103 142.796 14.5405 142.987 15.0626C143.186 15.5772 143.285 16.1802 143.285 16.8713V21.8566C143.285 22.5552 143.142 23.0919 142.855 23.4669C142.576 23.842 142.108 24.0294 141.454 24.0294C140.837 24.0294 140.399 23.842 140.142 23.4669C139.892 23.0919 139.767 22.5552 139.767 21.8566V17.0258C139.767 16.6949 139.722 16.4007 139.635 16.1434C139.546 15.8787 139.421 15.6581 139.259 15.4817C139.105 15.2979 138.921 15.1618 138.708 15.0736C138.495 14.978 138.266 14.9301 138.024 14.9301C137.722 14.9301 137.436 14.978 137.164 15.0736C136.892 15.1691 136.653 15.3162 136.447 15.5147C136.248 15.7133 136.087 15.9669 135.961 16.2757C135.844 16.5845 135.785 16.9559 135.785 17.3897V21.8566C135.785 22.5552 135.641 23.0919 135.355 23.4669C135.076 23.842 134.609 24.0294 133.954 24.0294C133.336 24.0294 132.899 23.842 132.642 23.4669C132.391 23.0919 132.266 22.5552 132.266 21.8566V17.2353C132.266 16.478 132.108 15.9045 131.793 15.5147C131.483 15.1251 131.061 14.9301 130.524 14.9301C130.208 14.9301 129.913 14.9816 129.641 15.0846C129.369 15.1876 129.134 15.3382 128.935 15.5368C128.737 15.7353 128.579 15.9816 128.461 16.2757C128.351 16.5699 128.296 16.9081 128.296 17.2904V21.8566C128.296 22.5552 128.152 23.0919 127.866 23.4669C127.587 23.842 127.12 24.0294 126.465 24.0294C125.847 24.0294 125.41 23.842 125.153 23.4669C124.903 23.0919 124.777 22.5552 124.777 21.8566V15.1066Z" fill="black"/>
<path d="M16.7291 22.1471C13.6103 22.1471 11.082 19.6189 11.082 16.5001C11.082 13.3813 13.6103 10.853 16.7291 10.853C19.8479 10.853 22.3761 13.3813 22.3761 16.5001C22.3761 19.6189 19.8479 22.1471 16.7291 22.1471Z" fill="#2A2A2A"/>
<path d="M5.78947 18.429C4.153 18.7176 3.03129 20.2984 3.65948 21.8368C4.5365 23.9846 5.93568 25.8982 7.74962 27.3935C10.3434 29.5316 13.615 30.6741 16.9759 30.6155C20.3368 30.5568 23.5666 29.3008 26.0842 27.0734C27.8448 25.5158 29.1764 23.5545 29.978 21.3774C30.5521 19.818 29.3758 18.2773 27.7302 18.0461C26.0848 17.8148 24.6073 19.0126 23.7945 20.462C23.354 21.2476 22.782 21.9603 22.0968 22.5665C20.6523 23.8446 18.7992 24.5651 16.8709 24.5988C14.9426 24.6324 13.0655 23.977 11.5773 22.7502C10.8713 22.1682 10.2749 21.4759 9.80716 20.7061C8.9443 19.286 7.42594 18.1405 5.78947 18.429Z" fill="#EF6767"/>
<path d="M30.7384 18.2642C30.8105 17.6862 30.8476 17.0974 30.8476 16.5C30.8476 8.70301 24.5269 2.38232 16.73 2.38232C8.93299 2.38232 2.6123 8.70301 2.6123 16.5C2.6123 17.2667 2.67343 18.0192 2.79109 18.7529C3.43954 17.8651 4.45161 17.2315 5.54478 17.0387C6.72755 16.8301 7.8025 17.117 8.71138 17.6532C8.65769 17.2765 8.6299 16.8915 8.6299 16.5C8.6299 12.0265 12.2564 8.39992 16.73 8.39992C21.2035 8.39992 24.83 12.0265 24.83 16.5C24.83 16.7949 24.8142 17.0862 24.7835 17.373C25.6732 16.8052 26.7377 16.4808 27.9272 16.648C29.0261 16.8025 30.0594 17.4001 30.7384 18.2642Z" fill="#6EC11C"/>
</svg>
