<svg width="153" height="19" viewBox="0 0 153 19" fill="none" xmlns="http://www.w3.org/2000/svg">
<path d="M76.4225 16.3741H71.3025V2.68611H76.4225V16.3741ZM71.8025 15.8741H75.9225V3.18611H71.8025V15.8741ZM83.5465 16.3741H78.5295V2.68611H89.0115C90.5131 2.56451 92.0085 2.98608 93.2255 3.87411C93.7494 4.35342 94.1555 4.9473 94.412 5.6094C94.6686 6.27151 94.7687 6.98394 94.7045 7.69111C94.7793 8.91308 94.3904 10.1183 93.6155 11.0661C92.6985 12.1181 91.1725 12.6601 89.0805 12.6791C88.5535 12.6931 84.6045 12.6791 83.5495 12.6791L83.5465 16.3741ZM79.0265 15.8741H83.0465V12.1741H83.2975C83.3485 12.1741 88.4755 12.1901 89.0685 12.1741C91.0175 12.1571 92.4185 11.6741 93.2375 10.7311C93.9273 9.87356 94.2699 8.78826 94.1975 7.69011C94.259 7.05648 94.1737 6.4172 93.9483 5.82185C93.7228 5.2265 93.3633 4.69108 92.8975 4.25711C91.7691 3.44721 90.3885 3.06704 89.0045 3.18511H79.0295L79.0265 15.8741ZM87.9495 9.60411H83.0125V5.87811H87.9825C88.3348 5.82943 88.6937 5.87055 89.0258 5.99764C89.358 6.12474 89.6527 6.33369 89.8825 6.60511C90.091 6.95205 90.1893 7.35409 90.1645 7.75811C90.1832 8.13321 90.1022 8.50658 89.9295 8.84011C89.6924 9.12599 89.3857 9.34606 89.0389 9.47916C88.6922 9.61226 88.317 9.65391 87.9495 9.60011V9.60411ZM83.5125 9.10411H87.9495C88.7695 9.10411 89.2775 8.93311 89.5025 8.58111C89.6264 8.32526 89.6825 8.04187 89.6655 7.75811C89.6874 7.46017 89.6228 7.16225 89.4795 6.90011L89.4735 6.89111C89.2355 6.54111 88.7625 6.37811 87.9825 6.37811H83.5125V9.10411ZM103.829 16.5761C99.3395 16.5761 96.6595 15.4611 95.6385 13.1681C95.4714 12.7252 95.358 12.2639 95.3005 11.7941L95.2565 11.5061H100.598L100.633 11.7161C100.675 11.9293 100.765 12.13 100.897 12.3021C101.108 12.5571 101.812 12.9851 104.148 12.9851C106.956 12.9851 106.956 12.4921 106.956 12.2271C106.956 11.7801 106.631 11.6271 104.341 11.3831L103.906 11.3421C103.044 11.2611 101.954 11.1581 101.456 11.1151C97.2565 10.7351 95.3815 9.43011 95.3815 6.88511C95.3815 4.21211 98.5725 2.48511 103.511 2.48511C107.54 2.48511 110.136 3.54711 111.225 5.64411C111.483 6.13189 111.657 6.6601 111.738 7.20611L111.773 7.48711H106.425L106.403 7.26111C106.382 7.08449 106.307 6.9188 106.187 6.78711C105.987 6.51911 105.355 6.07611 103.393 6.07611C100.984 6.07611 100.652 6.38411 100.652 6.71611C100.652 7.15911 101.413 7.31611 103.852 7.57711C104.869 7.66011 106.504 7.82811 107.064 7.89611C110.585 8.27811 112.156 9.55111 112.156 12.0251C112.157 14.1001 110.712 16.5761 103.829 16.5761ZM95.8405 12.0061C95.8906 12.3359 95.9768 12.6591 96.0975 12.9701C97.0275 15.0591 99.5575 16.0761 103.829 16.0761C107.401 16.0761 111.66 15.3761 111.66 12.0251C111.66 9.83211 110.27 8.74611 107.011 8.39311C106.451 8.32511 104.826 8.15811 103.811 8.07411C101.211 7.79211 100.154 7.64211 100.154 6.71611C100.154 5.75811 101.293 5.57611 103.395 5.57611C105.056 5.57611 106.129 5.87611 106.584 6.48111C106.708 6.63016 106.802 6.80206 106.86 6.98711H111.194C111.107 6.60036 110.969 6.2268 110.784 5.87611C109.784 3.95711 107.341 2.98511 103.513 2.98511C98.8785 2.98511 95.8835 4.51611 95.8835 6.88511C95.8835 9.14511 97.5645 10.2611 101.502 10.6171C102.002 10.6601 103.091 10.7631 103.955 10.8451L104.393 10.8861C106.52 11.1101 107.458 11.2501 107.458 12.2271C107.458 13.2791 106.245 13.4851 104.15 13.4851C102.212 13.4851 100.988 13.1941 100.515 12.6211C100.37 12.4384 100.26 12.2297 100.191 12.0061H95.8405ZM121.656 16.5591C116.436 16.5591 113.556 14.4481 113.556 10.6141V2.68611H118.608V10.6141C118.608 11.9291 119.785 12.6831 121.836 12.6831C123.796 12.6831 125.013 11.8961 125.013 10.6311V2.68611H130.013V11.0341C130.018 14.5451 126.969 16.5591 121.653 16.5591H121.656ZM114.056 3.18611V10.6141C114.056 15.3521 118.814 16.0591 121.656 16.0591C124.594 16.0591 129.521 15.4061 129.521 11.0341V3.18611H125.521V10.6311C125.521 12.1811 124.077 13.1831 121.844 13.1831C119.51 13.1831 118.116 12.2231 118.116 10.6141V3.18611H114.056ZM151.201 16.3741H146.433V10.1941L143.729 16.3741H139.57L136.894 10.2061V16.3741H132.109V2.68611H138.403L141.673 10.2331L145.101 2.68611H151.207L151.201 16.3741ZM146.933 15.8741H150.701V3.18611H145.419L141.657 11.4651L138.071 3.18611H132.605V15.8741H136.39V7.80011L139.89 15.8771H143.39L146.927 7.81211L146.933 15.8741ZM6.78349 2.93611H2.22949V16.1241H14.8135V12.6131H6.78349V2.93611ZM24.0055 2.63611C18.1925 2.63611 15.1355 5.39111 15.1355 9.43611C15.1355 14.0061 18.3445 16.3241 24.0055 16.3241C30.2375 16.3241 32.8585 13.6361 32.8585 9.43611C32.8585 5.17111 29.9015 2.63411 24.0055 2.63411V2.63611ZM23.9885 6.06311C24.3842 6.06125 24.7797 6.08429 25.1725 6.13211L20.0815 11.2231C19.8406 10.6782 19.7231 10.0867 19.7375 9.49111C19.7375 7.42211 20.7795 6.06111 23.9885 6.06111V6.06311ZM24.0055 12.9511C23.6242 12.9528 23.2432 12.9314 22.8645 12.8871L27.9645 7.78711C28.1964 8.32301 28.3074 8.90344 28.2895 9.48711C28.2895 11.5001 27.3295 12.9491 24.0055 12.9491V12.9511ZM41.8815 11.1511H46.5685C46.4995 11.4764 46.3557 11.7811 46.1485 12.0411C45.1768 12.8327 43.9367 13.2179 42.6875 13.1161C42.0587 13.1834 41.4229 13.1147 40.823 12.9147C40.2231 12.7148 39.6731 12.3882 39.2105 11.9571C38.7366 11.262 38.5115 10.4272 38.5715 9.58811C38.4948 8.70885 38.7396 7.83163 39.2605 7.11911C39.9155 6.37911 41.0245 6.06011 42.6545 6.06011C43.6916 5.97424 44.7274 6.24059 45.5945 6.81611C45.8678 7.03319 46.0721 7.32502 46.1825 7.65611H50.5295C50.4979 7.11058 50.3667 6.57544 50.1425 6.07711C49.1015 3.96011 46.6815 2.70011 42.5665 2.70011C38.9875 2.70011 36.5855 3.79211 35.2585 5.43911C34.3821 6.62847 33.9322 8.07855 33.9815 9.55511C33.9248 11.0651 34.3631 12.5522 35.2295 13.7901C36.5405 15.4901 38.8755 16.3261 41.6815 16.3261C43.547 16.4562 45.3998 15.9337 46.9225 14.8481L47.0405 16.1241H50.6515V8.31211H41.8815V11.1511ZM60.9005 2.63311C55.0885 2.63311 52.0305 5.38811 52.0305 9.43311C52.0305 14.0031 55.2385 16.3211 60.9005 16.3211C67.1335 16.3211 69.7545 13.6331 69.7545 9.43311C69.7545 5.17111 66.7975 2.63411 60.9005 2.63411V2.63311ZM60.8845 6.06011C61.2698 6.05897 61.6548 6.08101 62.0375 6.12611L56.9665 11.2001C56.7331 10.6612 56.6195 10.0782 56.6335 9.49111C56.6295 7.42211 57.6755 6.06011 60.8845 6.06011ZM60.9005 12.9481C60.5091 12.9498 60.118 12.927 59.7295 12.8801L64.8465 7.76211C65.0872 8.30514 65.2024 8.89543 65.1835 9.48911C65.1855 11.5001 64.2295 12.9491 60.9005 12.9491V12.9481Z" fill="#9747FF"/>
</svg>
