<svg width="155" height="29" viewBox="0 0 155 29" fill="none" xmlns="http://www.w3.org/2000/svg">
<g clip-path="url(#clip0_2007_1328)">
<path d="M14.2703 28.5C22.0025 28.5 28.2703 22.2322 28.2703 14.5V4.7C28.2703 3.58609 27.8278 2.5178 27.0402 1.73015C26.2525 0.942499 25.1842 0.5 24.0703 0.5L14.9703 0.5V6.6418C14.9703 8.0432 15.0557 9.495 15.7907 10.6878C16.3169 11.5426 17.0208 12.2743 17.8547 12.8332C18.6885 13.392 19.6328 13.765 20.6235 13.9267L20.8916 13.9701C21.0021 14.0079 21.0981 14.0793 21.166 14.1743C21.234 14.2693 21.2705 14.3832 21.2705 14.5C21.2705 14.6168 21.234 14.7307 21.166 14.8257C21.0981 14.9207 21.0021 14.9921 20.8916 15.0299L20.6235 15.0733C19.176 15.3098 17.8394 15.9949 16.8023 17.032C15.7652 18.0691 15.0801 19.4057 14.8436 20.8532L14.8002 21.1213C14.7624 21.2318 14.691 21.3278 14.596 21.3957C14.501 21.4636 14.3871 21.5002 14.2703 21.5002C14.1535 21.5002 14.0396 21.4636 13.9446 21.3957C13.8496 21.3278 13.7782 21.2318 13.7404 21.1213L13.697 20.8532C13.5352 19.8625 13.1623 18.9182 12.6034 18.0844C12.0446 17.2505 11.3129 16.5466 10.4581 16.0204C9.26531 15.2854 7.81351 15.2 6.41211 15.2H0.287109C0.653209 22.6067 6.77331 28.5 14.2703 28.5Z" fill="#4058D5"/>
<path d="M0.270508 13.8H6.41231C7.81371 13.8 9.26551 13.7146 10.4583 12.9796C11.3907 12.4051 12.1756 11.6202 12.7501 10.6878C13.4851 9.495 13.5705 8.0432 13.5705 6.6418V0.5H4.47051C3.3566 0.5 2.28831 0.942499 1.50066 1.73015C0.713007 2.5178 0.270508 3.58609 0.270508 4.7L0.270508 13.8ZM32.789 1.9C32.789 2.2713 32.6415 2.6274 32.379 2.88995C32.1164 3.1525 31.7603 3.3 31.389 3.3C31.0177 3.3 30.6616 3.1525 30.3991 2.88995C30.1365 2.6274 29.989 2.2713 29.989 1.9C29.989 1.5287 30.1365 1.1726 30.3991 0.91005C30.6616 0.6475 31.0177 0.5 31.389 0.5C31.7603 0.5 32.1164 0.6475 32.379 0.91005C32.6415 1.1726 32.789 1.5287 32.789 1.9ZM148.468 8.9728C152.382 8.9728 154.271 11.7063 154.271 14.8724V20.8189H150.175V15.578C150.175 14.143 149.651 12.9586 148.15 12.9586C146.648 12.9586 146.148 14.143 146.148 15.578V20.8182H142.052V15.578C142.052 14.143 141.552 12.9586 140.049 12.9586C138.548 12.9586 138.024 14.143 138.024 15.578V20.8182H133.929V14.8717C133.929 11.7056 135.817 8.9721 139.731 8.9721C141.87 8.9721 143.417 9.8149 144.123 11.2044C144.873 9.8149 146.512 8.9714 148.468 8.9714V8.9728ZM126.569 17.174C127.889 17.174 128.458 15.9665 128.458 14.5308V9.4278H132.553V15.032C132.553 18.3808 130.597 21.1605 126.569 21.1605C122.542 21.1605 120.585 18.3815 120.585 15.032V9.4278H124.681V14.5308C124.681 15.9658 125.249 17.174 126.569 17.174ZM114.563 21.1829C111.992 21.1829 110.331 20.2946 109.352 18.5635L112.31 16.9003C112.72 17.629 113.334 17.9937 114.358 17.9937C115.2 17.9937 115.586 17.6976 115.586 17.3329C115.586 15.9434 109.58 17.356 109.58 12.9369C109.58 10.7949 111.4 9.0638 114.494 9.0638C117.202 9.0638 118.681 10.3847 119.341 11.6608L116.383 13.3464C116.133 12.6632 115.359 12.253 114.585 12.253C113.994 12.253 113.675 12.5036 113.675 12.8452C113.675 14.2578 119.682 12.9593 119.682 17.2419C119.682 19.6338 117.339 21.1829 114.563 21.1829ZM100.254 26.0584H96.1579V15.1006C96.1579 11.6146 98.7745 9.0862 102.415 9.0862C105.965 9.0862 108.673 11.7973 108.673 15.1006C108.673 18.7455 106.26 21.1605 102.643 21.1605C101.801 21.1605 100.959 20.9099 100.254 20.5221V26.0584ZM102.415 17.3105C103.712 17.3105 104.577 16.3081 104.577 15.123C104.577 13.9162 103.712 12.9362 102.415 12.9362C101.118 12.9362 100.254 13.9162 100.254 15.1237C100.254 16.3081 101.118 17.3105 102.415 17.3105ZM92.0552 8.221C90.7126 8.221 89.5982 7.1045 89.5982 5.7605C89.5982 4.4165 90.7126 3.3 92.0552 3.3C93.3978 3.3 94.5129 4.4165 94.5129 5.7605C94.5129 7.1045 93.3978 8.221 92.0552 8.221ZM90.0077 9.4278H94.1034V20.8189H90.0077V9.4278ZM82.1495 21.1605C78.5998 21.1605 75.8922 18.427 75.8922 15.1006C75.8922 11.7973 78.5998 9.0638 82.1495 9.0638C85.6992 9.0638 88.4068 11.7973 88.4068 15.1006C88.4068 18.427 85.6992 21.1605 82.1495 21.1605ZM82.1495 17.3105C83.4466 17.3105 84.3111 16.3081 84.3111 15.123C84.3111 13.9162 83.4466 12.9138 82.1495 12.9138C80.8524 12.9138 79.9879 13.9162 79.9879 15.123C79.9879 16.3081 80.8524 17.3105 82.1495 17.3105ZM68.1586 26.4C65.3376 26.4 63.2894 25.147 62.2429 22.914L65.633 21.0919C65.997 21.8668 66.6795 22.6641 68.09 22.6641C69.5698 22.6641 70.5477 21.7296 70.6618 20.0895C70.1158 20.5683 69.2506 20.9323 67.9542 20.9323C64.7909 20.9323 62.2422 18.4949 62.2422 15.0775C62.2422 11.7749 64.9505 9.0862 68.5002 9.0862C72.1409 9.0862 74.7575 11.6153 74.7575 15.1006V19.6114C74.7575 23.712 71.9127 26.4 68.1586 26.4ZM68.4316 17.083C69.6601 17.083 70.5932 16.2395 70.5932 14.9865C70.5932 13.7566 69.6608 12.9362 68.4316 12.9362C67.2255 12.9362 66.27 13.7566 66.27 14.9872C66.27 16.2402 67.2255 17.0823 68.4316 17.0823V17.083ZM55.2954 21.1605C51.7457 21.1605 49.0374 18.427 49.0374 15.1006C49.0374 11.7973 51.7457 9.0638 55.2954 9.0638C58.8444 9.0638 61.5527 11.7973 61.5527 15.1006C61.5527 18.427 58.8451 21.1605 55.2954 21.1605ZM55.2954 17.3105C56.5925 17.3105 57.457 16.3081 57.457 15.123C57.457 13.9162 56.5925 12.9138 55.2954 12.9138C53.9983 12.9138 53.1338 13.9162 53.1338 15.123C53.1338 16.3081 53.9983 17.3105 55.2954 17.3105ZM41.5796 5.442V16.9458H48.3605V20.8189H41.0105C38.417 20.8189 37.3705 19.4518 37.3705 17.2874V5.442H41.5796Z" fill="black"/>
</g>
<defs>
<clipPath id="clip0_2007_1328">
<rect width="154" height="28" fill="white" transform="translate(0.270508 0.5)"/>
</clipPath>
</defs>
</svg>
