<svg width="49" height="48" viewBox="0 0 49 48" fill="none" xmlns="http://www.w3.org/2000/svg">
<g clip-path="url(#clip0_2007_1364)">
<path d="M27.6658 15C27.6658 14.6022 27.8238 14.2207 28.1051 13.9394C28.3864 13.6581 28.768 13.5 29.1658 13.5H47.1658C47.5636 13.5 47.9452 13.6581 48.2265 13.9394C48.5078 14.2207 48.6658 14.6022 48.6658 15C48.6658 15.3979 48.5078 15.7794 48.2265 16.0607C47.9452 16.342 47.5636 16.5 47.1658 16.5H29.1658C28.768 16.5 28.3864 16.342 28.1051 16.0607C27.8238 15.7794 27.6658 15.3979 27.6658 15ZM47.1658 22.5H29.1658C28.768 22.5 28.3864 22.6581 28.1051 22.9394C27.8238 23.2207 27.6658 23.6022 27.6658 24C27.6658 24.3979 27.8238 24.7794 28.1051 25.0607C28.3864 25.342 28.768 25.5 29.1658 25.5H47.1658C47.5636 25.5 47.9452 25.342 48.2265 25.0607C48.5078 24.7794 48.6658 24.3979 48.6658 24C48.6658 23.6022 48.5078 23.2207 48.2265 22.9394C47.9452 22.6581 47.5636 22.5 47.1658 22.5ZM47.1658 31.5H33.6658C33.268 31.5 32.8864 31.6581 32.6051 31.9394C32.3238 32.2207 32.1658 32.6022 32.1658 33C32.1658 33.3979 32.3238 33.7794 32.6051 34.0607C32.8864 34.342 33.268 34.5 33.6658 34.5H47.1658C47.5636 34.5 47.9452 34.342 48.2265 34.0607C48.5078 33.7794 48.6658 33.3979 48.6658 33C48.6658 32.6022 48.5078 32.2207 48.2265 31.9394C47.9452 31.6581 47.5636 31.5 47.1658 31.5ZM21.1577 26.625C22.6464 25.4784 23.7388 23.8946 24.2818 22.0956C24.8248 20.2967 24.7912 18.373 24.1855 16.5941C23.5799 14.8153 22.4327 13.2707 20.9048 12.1769C19.3768 11.083 17.5449 10.4949 15.6658 10.4949C13.7867 10.4949 11.9547 11.083 10.4268 12.1769C8.89892 13.2707 7.7517 14.8153 7.14607 16.5941C6.54043 18.373 6.50676 20.2967 7.04976 22.0956C7.59277 23.8946 8.68523 25.4784 10.1739 26.625C6.30767 28.2619 3.2608 31.5563 2.21267 35.625C2.15542 35.8468 2.1497 36.0786 2.19594 36.3029C2.24217 36.5272 2.33914 36.7379 2.47942 36.9189C2.61969 37.0999 2.79954 37.2464 3.00518 37.3471C3.21083 37.4478 3.4368 37.5002 3.6658 37.5H27.6658C27.8948 37.5002 28.1208 37.4478 28.3264 37.3471C28.532 37.2464 28.7119 37.0999 28.8522 36.9189C28.9924 36.7379 29.0894 36.5272 29.1357 36.3029C29.1819 36.0786 29.1762 35.8468 29.1189 35.625C28.0708 31.5544 25.0239 28.26 21.1577 26.625Z" fill="#3139FB"/>
</g>
<defs>
<clipPath id="clip0_2007_1364">
<rect width="48" height="48" fill="white" transform="translate(0.666016)"/>
</clipPath>
</defs>
</svg>
