<svg width="49" height="48" viewBox="0 0 49 48" fill="none" xmlns="http://www.w3.org/2000/svg">
<path d="M42.1867 21.7031C42.2839 22.4648 42.3327 23.232 42.333 23.9999C42.3358 27.3633 41.3955 30.66 39.619 33.5158C37.8424 36.3716 35.3007 38.6721 32.2825 40.1561C29.2643 41.6401 25.8905 42.2482 22.5441 41.9113C19.1977 41.5743 16.0129 40.3059 13.3511 38.2499C18.0742 37.0949 23.6298 34.7006 28.8086 31.7249C34.3286 28.5543 38.988 25.0237 42.1867 21.7031ZM46.2911 11.3774C44.8567 8.90432 41.0711 8.34745 35.3223 9.7537C32.6609 7.69577 29.4756 6.42553 26.1284 6.08726C22.7811 5.74899 19.4061 6.35625 16.3867 7.84007C13.3673 9.32389 10.8246 11.6248 9.04742 14.4813C7.27022 17.3379 6.3298 20.6357 6.33297 23.9999C6.3332 24.7716 6.38205 25.5425 6.47922 26.3081C1.28734 31.6874 1.36234 34.8749 2.37672 36.6224C3.33297 38.2799 5.32797 38.9999 7.95297 38.9999C9.77551 38.9622 11.5873 38.7105 13.3511 38.2499C12.384 37.5023 11.4945 36.6593 10.6961 35.7337C7.45422 36.2737 5.44609 35.9212 4.97172 35.1168C4.69797 34.6462 4.84984 33.7593 5.38797 32.6793C5.92005 31.6678 6.56681 30.721 7.31547 29.8574C7.31635 29.8519 7.31635 29.8462 7.31547 29.8406V29.8556C8.05959 32.0086 9.20477 34.0012 10.6905 35.7281C14.6167 35.0737 20.3448 33.1199 27.3086 29.1187C32.583 26.0981 38.208 21.8756 41.3561 18.1537C40.6148 15.9977 39.4693 14.0027 37.9811 12.2756L37.9567 12.2474C37.9567 12.2568 37.9736 12.2643 37.9811 12.2756C40.6455 11.8349 43.113 11.8687 43.6998 12.8831C43.8723 13.1774 43.8873 13.6181 43.728 14.1956C43.4111 15.3787 42.5673 16.7324 41.3598 18.1574C41.7569 19.3092 42.0352 20.4985 42.1905 21.7068C44.5342 19.2693 46.0942 16.9537 46.6248 14.9718C46.9886 13.5956 46.878 12.3881 46.2911 11.3774Z" fill="#3139FB"/>
</svg>
