<svg width="64" height="65" viewBox="0 0 64 65" fill="none" xmlns="http://www.w3.org/2000/svg">
<path d="M20 50.3486C24.4183 50.3486 28 46.7669 28 42.3486C28 37.9304 24.4183 34.3486 20 34.3486C15.5817 34.3486 12 37.9304 12 42.3486C12 46.7669 15.5817 50.3486 20 50.3486Z" stroke="#3139FB" stroke-width="3" stroke-linecap="round" stroke-linejoin="round"/>
<path d="M20 24.3486C24.4183 24.3486 28 20.7669 28 16.3486C28 11.9304 24.4183 8.34863 20 8.34863C15.5817 8.34863 12 11.9304 12 16.3486C12 20.7669 15.5817 24.3486 20 24.3486Z" stroke="#3139FB" stroke-width="3" stroke-linecap="round" stroke-linejoin="round"/>
<path d="M44 50.3486C48.4183 50.3486 52 46.7669 52 42.3486C52 37.9304 48.4183 34.3486 44 34.3486C39.5817 34.3486 36 37.9304 36 42.3486C36 46.7669 39.5817 50.3486 44 50.3486Z" stroke="#3139FB" stroke-width="3" stroke-linecap="round" stroke-linejoin="round"/>
<path d="M8 56.3486C9.39721 54.4857 11.209 52.9736 13.2918 51.9322C15.3746 50.8908 17.6713 50.3486 20 50.3486C22.3287 50.3486 24.6254 50.8908 26.7082 51.9322C28.791 52.9736 30.6028 54.4857 32 56.3486C33.3972 54.4857 35.209 52.9736 37.2918 51.9322C39.3746 50.8908 41.6713 50.3486 44 50.3486C46.3287 50.3486 48.6254 50.8908 50.7082 51.9322C52.791 52.9736 54.6028 54.4857 56 56.3486" stroke="#3139FB" stroke-width="3" stroke-linecap="round" stroke-linejoin="round"/>
<path d="M44 24.3486C48.4183 24.3486 52 20.7669 52 16.3486C52 11.9304 48.4183 8.34863 44 8.34863C39.5817 8.34863 36 11.9304 36 16.3486C36 20.7669 39.5817 24.3486 44 24.3486Z" stroke="#3139FB" stroke-width="3" stroke-linecap="round" stroke-linejoin="round"/>
<path d="M8 30.3486C9.39721 28.4857 11.209 26.9736 13.2918 25.9322C15.3746 24.8908 17.6713 24.3486 20 24.3486C22.3287 24.3486 24.6254 24.8908 26.7082 25.9322C28.791 26.9736 30.6028 28.4857 32 30.3486C33.3972 28.4857 35.209 26.9736 37.2918 25.9322C39.3746 24.8908 41.6713 24.3486 44 24.3486C46.3287 24.3486 48.6254 24.8908 50.7082 25.9322C52.791 26.9736 54.6028 28.4857 56 30.3486" stroke="#3139FB" stroke-width="3" stroke-linecap="round" stroke-linejoin="round"/>
</svg>
