<svg width="64" height="64" viewBox="0 0 64 64" fill="none" xmlns="http://www.w3.org/2000/svg">
<path d="M6 48V16C6 15.4696 6.21071 14.9609 6.58579 14.5858C6.96086 14.2107 7.46957 14 8 14H56C56.5304 14 57.0391 14.2107 57.4142 14.5858C57.7893 14.9609 58 15.4696 58 16V48C58 48.5304 57.7893 49.0391 57.4142 49.4142C57.0391 49.7893 56.5304 50 56 50H40.8275C40.2978 49.9998 39.7898 49.7894 39.415 49.415L33.415 43.415C33.2293 43.229 33.0087 43.0815 32.7659 42.9809C32.5231 42.8802 32.2628 42.8284 32 42.8284C31.7372 42.8284 31.4769 42.8802 31.2341 42.9809C30.9913 43.0815 30.7707 43.229 30.585 43.415L24.585 49.415C24.2102 49.7894 23.7022 49.9998 23.1725 50H8C7.46957 50 6.96086 49.7893 6.58579 49.4142C6.21071 49.0391 6 48.5304 6 48Z" stroke="white" stroke-width="3" stroke-linecap="round" stroke-linejoin="round"/>
<path d="M20 38C23.3137 38 26 35.3137 26 32C26 28.6863 23.3137 26 20 26C16.6863 26 14 28.6863 14 32C14 35.3137 16.6863 38 20 38Z" stroke="white" stroke-width="3" stroke-linecap="round" stroke-linejoin="round"/>
<path d="M44 38C47.3137 38 50 35.3137 50 32C50 28.6863 47.3137 26 44 26C40.6863 26 38 28.6863 38 32C38 35.3137 40.6863 38 44 38Z" stroke="white" stroke-width="3" stroke-linecap="round" stroke-linejoin="round"/>
</svg>
